<svg width="16" height="15" viewBox="0 0 16 15" fill="none" xmlns="http://www.w3.org/2000/svg">
<path fill-rule="evenodd" clip-rule="evenodd" d="M7.54488 0.0022872C7.70391 0.00203781 7.87499 0.00211473 8.05961 0.00219775L8.3639 0.0022872C10.8015 0.0022872 11.0905 0.0110548 12.0531 0.0548927C12.9432 0.0956811 13.4263 0.24473 13.7482 0.369954C14.1742 0.535776 14.478 0.734 14.7973 1.05421C15.1169 1.37442 15.3147 1.67937 15.4805 2.10632C15.6055 2.42843 15.7544 2.91256 15.7949 3.80456C15.8387 4.769 15.8482 5.05871 15.8482 7.50029C15.8482 9.94188 15.8387 10.2316 15.7949 11.196C15.7542 12.088 15.6055 12.5722 15.4805 12.8943C15.3151 13.3212 15.1169 13.6252 14.7973 13.9452C14.4778 14.2654 14.1744 14.4637 13.7482 14.6295C13.4267 14.7553 12.9432 14.904 12.0531 14.9447C11.0907 14.9886 10.8015 14.9981 8.3639 14.9981C5.92606 14.9981 5.63714 14.9886 4.67471 14.9447C3.78456 14.9036 3.30144 14.7545 2.97943 14.6293C2.55337 14.4635 2.24905 14.2653 1.92951 13.945C1.60997 13.6248 1.41215 13.3206 1.2463 12.8935C1.12133 12.5714 0.972404 12.0873 0.931891 11.1953C0.888144 10.2308 0.879395 9.94111 0.879395 7.49801C0.879395 5.0549 0.888144 4.76671 0.931891 3.80228C0.972594 2.91027 1.12133 2.42614 1.2463 2.10365C1.41177 1.67671 1.60997 1.37175 1.92951 1.05154C2.24905 0.731331 2.55337 0.533108 2.97943 0.366905C3.30125 0.241109 3.78456 0.0924409 4.67471 0.0514619C5.51693 0.013342 5.84332 0.001906 7.54488 0V0.0022872ZM13.2373 1.52138C12.6324 1.52138 12.1417 2.01255 12.1417 2.61884C12.1417 3.22493 12.6324 3.71667 13.2373 3.71667C13.8421 3.71667 14.3329 3.22493 14.3329 2.61884C14.3329 2.01274 13.8421 1.521 13.2373 1.521V1.52138ZM3.67535 7.50215C3.67535 4.90753 5.77463 2.80389 8.36387 2.80389H8.36369C10.9529 2.80389 13.0516 4.90753 13.0516 7.50215C13.0516 10.0968 10.9531 12.1995 8.36387 12.1995C5.77463 12.1995 3.67535 10.0968 3.67535 7.50215Z" fill="black"/>
<path fill-rule="evenodd" clip-rule="evenodd" d="M8.36403 4.45312C10.0447 4.45312 11.4073 5.81839 11.4073 7.50272C11.4073 9.18685 10.0447 10.5523 8.36403 10.5523C6.68322 10.5523 5.3208 9.18685 5.3208 7.50272C5.3208 5.81839 6.68322 4.45313 8.36403 4.45313V4.45312Z" fill="black"/>
</svg>
