<svg width="18" height="18" viewBox="0 0 18 18" fill="none" xmlns="http://www.w3.org/2000/svg">
<path fill-rule="evenodd" clip-rule="evenodd" d="M0.748047 8.50629C0.748047 13.2041 4.54477 17.0135 9.23003 17.0135C13.9144 17.0135 17.712 13.2041 17.712 8.50629C17.712 3.80851 13.9144 0 9.23003 0C4.54477 0 0.748047 3.80851 0.748047 8.50629ZM6.4171 15.6851C3.55798 14.5617 1.53198 11.7718 1.53198 8.50635C1.53198 4.24774 4.97346 0.797302 9.21898 0.797302C13.4645 0.797302 16.906 4.24774 16.906 8.50635C16.906 12.764 13.4645 16.2154 9.21898 16.2154C8.42584 16.2154 7.66177 16.0951 6.94313 15.871C7.25566 15.3589 7.72446 14.5198 7.89799 13.8501C7.99157 13.4893 8.37678 12.0178 8.37678 12.0178C8.62753 12.4971 9.3598 12.9034 10.1393 12.9034C12.4569 12.9034 14.1277 10.765 14.1277 8.10818C14.1277 5.56159 12.0554 3.65551 9.38887 3.65551C6.07186 3.65551 4.31024 5.88959 4.31024 8.32139C4.31024 9.45119 4.90986 10.8598 5.86926 11.3081C6.01553 11.3755 6.09367 11.3454 6.12728 11.2042C6.13758 11.161 6.165 11.0495 6.19786 10.9158C6.24615 10.7194 6.30618 10.4752 6.34078 10.3304C6.35895 10.2521 6.34987 10.1856 6.28718 10.109C5.9692 9.7227 5.71572 9.01202 5.71572 8.34963C5.71572 6.64947 6.99946 5.00398 9.18627 5.00398C11.0751 5.00398 12.397 6.29413 12.397 8.14007C12.397 10.2256 11.3467 11.6707 9.98032 11.6707C9.22625 11.6707 8.66115 11.0457 8.84194 10.2776C8.92039 9.94643 9.02528 9.60589 9.12727 9.27477C9.30758 8.68937 9.47882 8.13343 9.47882 7.71093C9.47882 7.1187 9.16174 6.62487 8.5067 6.62487C7.73446 6.62487 7.11575 7.42484 7.11575 8.49724C7.11575 9.17967 7.34561 9.64161 7.34561 9.64161C7.34561 9.64161 6.58336 12.8716 6.44436 13.4729C6.28991 14.1398 6.34987 15.0756 6.4171 15.6851Z" fill="black"/>
</svg>
