<svg width="20" height="18" viewBox="0 0 20 18" fill="none" xmlns="http://www.w3.org/2000/svg">
<path fill-rule="evenodd" clip-rule="evenodd" d="M10.3505 0H10.3497C10.3334 0 10.318 0 10.3033 0.000198453C10.1866 0.00138917 9.99465 0.00327447 9.9774 0.00347292C9.55649 0.00347292 8.71433 0.0635048 7.80972 0.466661C7.2925 0.697015 6.82727 1.00849 6.427 1.39244C5.94978 1.84993 5.56101 2.41398 5.27169 3.06917C4.84798 4.02849 4.94856 5.64434 5.02934 6.94287L5.02964 6.9449C5.03829 7.08397 5.04738 7.22918 5.05568 7.37068C4.99352 7.3995 4.89274 7.42992 4.7442 7.42992C4.5052 7.42992 4.22099 7.35277 3.89968 7.20075C3.80514 7.1563 3.69724 7.13383 3.57818 7.13383C3.38689 7.13383 3.18523 7.19068 3.0103 7.29452C2.79022 7.42501 2.64801 7.60942 2.60939 7.81387C2.58394 7.94912 2.58517 8.21644 2.87925 8.48752C3.04101 8.63676 3.27864 8.77438 3.58535 8.89678C3.66584 8.92878 3.76136 8.95934 3.86253 8.99174C4.21362 9.10441 4.74499 9.27463 4.88355 9.60392C4.95377 9.77086 4.92355 9.99055 4.79398 10.2561C4.79059 10.2633 4.7872 10.2704 4.7841 10.2779C4.75172 10.3542 4.44962 11.0451 3.82996 11.7738C3.47784 12.1882 3.09 12.5345 2.67784 12.8034C2.17477 13.1317 1.63043 13.3463 1.0601 13.4411C0.836132 13.4783 0.67619 13.6797 0.688671 13.9087C0.692504 13.9747 0.707835 14.0405 0.734418 14.1041L0.735057 14.1053C0.825616 14.3192 1.03558 14.5008 1.37693 14.6611C1.79406 14.8567 2.4179 15.0213 3.23098 15.15C3.27205 15.2289 3.31471 15.4272 3.34424 15.5629C3.37514 15.7072 3.40738 15.8555 3.45332 16.0131C3.5029 16.1838 3.63149 16.3878 3.96184 16.3878C4.08704 16.3878 4.23101 16.3593 4.39774 16.3267C4.6419 16.2783 4.97579 16.2123 5.39252 16.2123C5.62356 16.2123 5.863 16.2329 6.10402 16.2733C6.56861 16.3514 6.96913 16.6371 7.43254 16.9679C8.11083 17.452 8.8786 18 10.0516 18C10.0836 18 10.1157 17.999 10.1474 17.9967C10.1862 17.9986 10.2342 18 10.285 18C11.4583 18 12.2259 17.4518 12.9035 16.9681L12.9045 16.9671C13.3681 16.6367 13.7681 16.3514 14.2326 16.2733C14.4735 16.2329 14.7129 16.2123 14.944 16.2123C15.3421 16.2123 15.6574 16.2636 15.9388 16.319C16.1225 16.3555 16.2652 16.3731 16.3748 16.3731L16.3855 16.3733H16.3966C16.6382 16.3733 16.8157 16.2394 16.8835 16.0051C16.9285 15.8508 16.9606 15.7059 16.9923 15.5592C17.0199 15.432 17.0641 15.2281 17.1051 15.1484C17.9187 15.0194 18.5423 14.8552 18.9595 14.6596C19.3001 14.5001 19.5098 14.3186 19.6009 14.1056C19.6282 14.0418 19.6442 13.9756 19.6478 13.9082C19.6606 13.6796 19.5004 13.4778 19.2763 13.4406C16.7416 13.0188 15.5997 10.3891 15.5524 10.2774C15.5494 10.2701 15.546 10.2628 15.5424 10.2557C15.4128 9.99006 15.3829 9.77062 15.4531 9.60337C15.5914 9.27439 16.1224 9.10416 16.4738 8.99154C16.5755 8.95919 16.6713 8.92843 16.7512 8.89658C17.0971 8.75866 17.3443 8.60902 17.5074 8.4391C17.7021 8.23653 17.7401 8.04244 17.7377 7.91543C17.7318 7.60813 17.4991 7.33506 17.129 7.20135C17.004 7.14916 16.8615 7.12162 16.7163 7.12162C16.6175 7.12162 16.4712 7.13531 16.3326 7.20061C16.0361 7.34071 15.7705 7.41732 15.5424 7.42823C15.4212 7.42203 15.3361 7.39549 15.281 7.37013C15.2879 7.25027 15.2956 7.12713 15.3035 6.99873L15.3068 6.94376C15.388 5.64439 15.489 4.0273 15.0651 3.06728C14.7745 2.40976 14.3844 1.84427 13.9052 1.38579C13.5034 1.00159 13.0366 0.690169 12.5175 0.459964C11.6142 0.0597838 10.772 0 10.3505 0Z" fill="black"/>
</svg>
