<svg width="20" height="15" viewBox="0 0 20 15" fill="none" xmlns="http://www.w3.org/2000/svg">
<path fill-rule="evenodd" clip-rule="evenodd" d="M18.4041 3.02023C18.1975 2.22499 17.5888 1.59878 16.8159 1.38625C15.4153 1 9.79819 1 9.79819 1C9.79819 1 4.1811 1 2.78033 1.38625C2.00743 1.59878 1.39874 2.22499 1.19217 3.02023C0.816895 4.46151 0.816895 7.46875 0.816895 7.46875C0.816895 7.46875 0.816895 10.4759 1.19217 11.9173C1.39874 12.7125 2.00743 13.3387 2.78033 13.5514C4.1811 13.9375 9.79819 13.9375 9.79819 13.9375C9.79819 13.9375 15.4153 13.9375 16.8159 13.5514C17.5888 13.3387 18.1975 12.7125 18.4041 11.9173C18.7795 10.4759 18.7795 7.46875 18.7795 7.46875C18.7795 7.46875 18.7795 4.46151 18.4041 3.02023Z" fill="black" stroke="black"/>
<path fill-rule="evenodd" clip-rule="evenodd" d="M8.11426 10.5625V4.9375L12.6049 7.75011L8.11426 10.5625Z" fill="white"/>
</svg>
